<svg xmlns="http://www.w3.org/2000/svg" width="165" height="43" viewBox="0 0 165 43">
    <g fill="#292D33">
        <path d="M98.706 7H96v32h2.706c.715 0 1.294-.51 1.294-1.138V8.138c0-.302-.136-.591-.38-.805C99.379 7.12 99.05 7 98.707 7zM84.858 11H72.147v1.893c0 .637.514 1.153 1.148 1.153h9.05c-.09 1.457-.33 2.901-.715 4.31l-9.38.108.054 2.022c.016.629.533 1.128 1.16 1.12l6.95-.068c-1.736 3.664-4.474 6.763-8.414 9.263l1.693 1.828c.396.43 1.049.494 1.52.151C82.136 27.615 85.693 20.486 86 12.178c.007-.31-.11-.608-.324-.83-.215-.222-.51-.347-.818-.348zM91.802 8H89.39v12.275H85v1.885c0 .634.535 1.148 1.194 1.148h3.202V38h2.414c.657 0 1.19-.512 1.19-1.144V9.144c0-.304-.126-.597-.351-.811-.225-.215-.53-.335-.847-.333zM130.868 7h-2.557v11.96h-6.12c-.465-5.817-3.367-9.733-8.095-9.733-5.123 0-8.096 4.67-8.096 11.383 0 6.712 2.973 11.35 8.096 11.35 4.835 0 7.737-3.987 8.13-9.988h6.085V39h2.55c.63 0 1.139-.511 1.139-1.142V8.142c0-.628-.506-1.138-1.132-1.142zm-16.772 22.054c-2.615 0-4.513-3.34-4.513-8.405 0-5.137 1.898-8.441 4.513-8.441 2.724 0 4.611 3.304 4.611 8.44.025 5.066-1.887 8.406-4.611 8.406zM157.056 24.136c.621-.116 1.034-.696.927-1.306l-.313-1.818c-3.012.794-9.735 1.007-13.74 1.007v-3.852h9.706c.643 0 1.166-.51 1.168-1.139v-6.886c0-.63-.523-1.142-1.168-1.142H140v1.779c0 .63.523 1.141 1.168 1.141h9.852v3.401h-9.707c-.645 0-1.167.511-1.167 1.142v7.395c0 .63.522 1.142 1.167 1.142h2.984c4.249-.018 9.353-.249 12.759-.864zM153.98 27c-6.992 0-10.98 2.408-10.98 6.025C143 36.64 146.988 39 153.98 39c6.993 0 11.02-2.373 11.02-5.99 0-3.616-3.988-6.01-11.02-6.01zm0 9.128c-4.566 0-7.179-1.24-7.179-3.117 0-1.879 2.61-3.192 7.18-3.192 4.569 0 7.214 1.278 7.214 3.192 0 1.913-2.61 3.131-7.215 3.131v-.014zM165 24.884V8.116C165 7.5 164.442 7 163.753 7H161v19h2.753c.331 0 .648-.118.882-.327.234-.21.365-.493.365-.79zM51.835 22.523c.594-3.384 0-6.359-1.651-8.41-3.01-3.705-9.495-5.275-16.971-4.121-.414-1.153-.89-2.283-1.424-3.384-1.584-3.269-3.914-5.505-6.548-6.301-2.128-.618-4.416-.294-6.292.892-4.544 2.71-8.661 11.528-7.53 22.686-1.067-.656-2.057-1.327-2.932-1.925-2.601-1.792-4.655-3.194-6.683-2.187-.712.359-1.616 1.137-1.78 2.81-.355 3.678 3.203 9.814 7.783 13.399 4.128 3.226 7.972 5.097 12.456 6.068 2.956.633 5.97.951 8.992.95.854 0 1.63-.025 2.303-.06 4.89-.277 8.96-.911 12.455-1.944 6.384-1.892 11.761-5.068 14.377-8.495 1.897-2.48 1.78-4.405 1.338-5.588-1.231-3.29-4.626-4.096-7.893-4.39zM17.839 38.767c-2.804-.943-5.484-2.473-8.477-4.81C5.156 30.67 2.3 25.379 2.555 22.845c.06-.61.299-.717.377-.767.676-.337 2.274.739 4.12 2.004 1.551 1.1 3.165 2.105 4.834 3.01.978 5.112 2.978 9.03 5.953 11.675zM20.252 3.41c.86-.544 1.852-.842 2.868-.86.483 0 .962.072 1.424.215 1.95.588 3.722 2.351 4.982 4.968.391.806.761 1.688 1.153 2.749-3.698.882-13.918 4.097-16.655 13.09-.021.064-.039.132-.06.197-1.135-10.778 2.921-18.36 6.288-20.36zm36.11 27.528c-3.015 3.942-9.331 7.05-17.153 8.495 4.741-2.74 8.559-6.848 10.96-11.793.402-.843.75-1.711 1.043-2.599 2.64.198 5.363.717 6.125 2.768.373 1.035-.328 2.272-.979 3.129h.004zm-7.1-8.563c-.566-.022-1.139-.036-1.708-.047-2.847-.072-5.822-.143-7.719-.96-3.28-1.434-4.427-4.857-5.754-8.84l-.021-.071c1.252-.174 2.515-.262 3.779-.265 4.694 0 8.573 1.326 10.373 3.544 1.22 1.51 1.595 3.857 1.05 6.639zm-.712 2.541c-.202.556-.427 1.1-.676 1.624-2.278 4.696-5.966 8.55-10.54 11.018.76-1.615.793-3.48.092-5.122-1.815-4.108-6.22-4.37-11.345-4.66-1.886-.11-3.836-.226-5.85-.537-1.43-.218-2.834-.578-4.193-1.076.106-.613.25-1.219.431-1.813 1.932-6.345 8.986-10.037 15.067-11.41l.143.43c1.455 4.374 2.847 8.51 7.163 10.377 2.353 1.018 5.559 1.076 8.662 1.169h1.046zm-32.707 3.871c1.304.44 2.644.766 4.003.975 2.135.326 4.25.452 6.107.563 4.626.272 7.96.47 9.146 3.154.482 1.185.332 2.536-.399 3.584-1.406 2.15-3.882 3.165-7.345 3.03-3.463-.137-5.423-1.266-7.53-3.048-.668-.583-1.271-1.237-1.8-1.95-1.35-1.83-2.115-4.03-2.193-6.308h.01z"/>
    </g>
</svg>
