<svg xmlns="http://www.w3.org/2000/svg" width="49" height="50" viewBox="0 0 49 50">
    <g fill="none">
        <circle cx="24.5" cy="24.954" r="24.5" fill="#51CF66"/>
        <path fill="#FFF" d="M34.848 36.028l1.88-1.903c.335-.3.365-.815.066-1.151l-5.327-5.312c-.336-.3-.85-.27-1.15.066l-2.454 2.455-8.57-8.584 2.453-2.45c.332-.302.362-.815.066-1.152L16.48 12.66c-.161-.144-.372-.217-.587-.205-.215.012-.416.11-.559.27l-1.906 1.913c-1.52 1.522-1.875 3.79-.83 5.414 2.158 3.28 4.655 6.324 7.45 9.081 2.85 2.883 5.989 5.466 9.366 7.707 1.622 1.06 3.903.72 5.434-.812z"/>
    </g>
</svg>
