<svg xmlns="http://www.w3.org/2000/svg" width="176" height="65" viewBox="0 0 176 65">
    <defs>
        <filter id="a" width="103.8%" height="171.1%" x="-1.9%" y="-35.5%" filterUnits="objectBoundingBox">
            <feOffset dy="2" in="SourceAlpha" result="shadowOffsetOuter1"/>
            <feGaussianBlur in="shadowOffsetOuter1" result="shadowBlurOuter1" stdDeviation="6"/>
            <feColorMatrix in="shadowBlurOuter1" result="shadowMatrixOuter1" values="0 0 0 0 0 0 0 0 0 0 0 0 0 0 0 0 0 0 0.15 0"/>
            <feMerge>
                <feMergeNode in="shadowMatrixOuter1"/>
                <feMergeNode in="SourceGraphic"/>
            </feMerge>
        </filter>
    </defs>
    <g fill="#292D33" fill-rule="nonzero" filter="url(#a)" transform="translate(-130 -7)">
        <path d="M199.76 42.877c-1.103-2.974-4.23-3.785-7.801-4.061.672-3.31.187-6.237-1.468-8.26-2.898-3.538-9.34-4.996-16.575-3.823a33.397 33.397 0 0 0-1.46-3.526c-1.52-3.076-3.702-5.184-6.2-5.927a7.27 7.27 0 0 0-5.89.85c-4.472 2.63-8.438 11.339-7.106 22.351-1.324-.76-2.486-1.546-3.507-2.243-2.447-1.665-4.383-2.983-6.179-2.095a2.846 2.846 0 0 0-1.549 2.443c-.353 3.467 3.073 9.27 7.481 12.682 4.077 3.157 7.75 4.899 12.069 5.82a41.92 41.92 0 0 0 10.962.85 54.267 54.267 0 0 0 12.077-1.865c6.324-1.86 11.43-4.936 13.89-8.119 1.753-2.277 1.651-4.019 1.255-5.077zm-21.078-14.763c4.651 0 8.55 1.274 10.434 3.568 1.332 1.623 1.668 4.156 1.039 7.032l-1.966-.06c-2.839-.068-5.77-.136-7.694-.96-3.358-1.436-4.503-4.843-5.826-8.79-.051-.157-.106-.315-.158-.472a27.96 27.96 0 0 1 4.17-.318zm-19.69 22.793a11.174 11.174 0 0 1-2.209-6.84 23.18 23.18 0 0 0 4.336 1.096c2.077.315 4.128.425 5.958.544 4.651.272 8.013.467 9.26 3.271a4 4 0 0 1-.425 3.824c-1.145 1.73-3.273 3.271-7.528 3.101-3.515-.135-5.533-1.33-7.592-3.046a12.511 12.511 0 0 1-1.8-1.95zm18.954-2.65c-1.703-3.79-5.903-4.037-10.78-4.322-1.86-.11-3.787-.225-5.778-.527a21.488 21.488 0 0 1-4.452-1.176c.108-.71.269-1.412.481-2.1 1.97-6.419 9.124-10.06 15.32-11.377l.243.718c1.4 4.168 2.719 8.106 6.808 9.857 2.239.956 5.345 1.032 8.35 1.104l1.515.039a19.708 19.708 0 0 1-.852 2.069 24.39 24.39 0 0 1-11.532 11.373c.034-.047.072-.098.102-.144a5.791 5.791 0 0 0 .575-5.515zm-22.87-7.555c-1.489-11.123 2.733-19.012 6.21-21.06a5.446 5.446 0 0 1 4.472-.663c2.009.6 3.83 2.38 5.107 5.01a31.02 31.02 0 0 1 1.276 3.08c-6.638 1.461-14.247 5.467-16.426 12.545-.19.625-.344 1.26-.46 1.904l-.063-.03c-.039-.26-.077-.518-.115-.786zm-11.285-1.937c.08-.79.426-.969.57-1.028.133-.063.279-.097.426-.098.906 0 2.277.935 3.945 2.069a46.296 46.296 0 0 0 4.847 2.974c1.2 6.411 3.936 10.196 7.102 12.355l.098.068c-3.57-.85-6.681-2.515-10.213-5.243-4.18-3.254-7.03-8.544-6.775-11.097zm53.304 8.106c-3.783 4.911-11.83 7.715-19.243 8.735a26.232 26.232 0 0 0 12.575-12.32c.426-.889.787-1.806 1.08-2.745 3.18.212 5.793.807 6.588 2.94.43 1.172-.306 2.49-1 3.39zM211.536 46.86L210 45.22a19.916 19.916 0 0 0 7.637-8.317l-6.324.068a1.035 1.035 0 0 1-1.038-1l-.048-1.815 8.512-.098c.352-1.266.572-2.564.657-3.875h-8.229a1.042 1.042 0 0 1-.737-.3 1.027 1.027 0 0 1-.306-.73v-1.704h11.533c.284-.006.559.104.759.305.2.2.309.474.3.756-.278 7.452-3.505 13.852-9.786 18.486a1.048 1.048 0 0 1-1.381-.132l-.013-.005zm14.48 4.777V38.39h-2.797c-.276 0-.541-.109-.736-.303a1.027 1.027 0 0 1-.303-.732v-1.703h3.836V24.58h2.107c.275.002.538.113.731.308.193.195.3.458.298.731v24.984c0 .572-.467 1.035-1.042 1.035h-2.094zm5.77 1.363V24h2.176c.276 0 .54.11.735.303.195.195.304.458.303.732v26.934c0 .57-.465 1.031-1.038 1.031h-2.176zM248.174 26.018c4.181 0 6.746 3.547 7.156 8.818h5.417V24h2.246c.556 0 1.007.463 1.007 1.035v26.93c0 .275-.106.538-.295.732a.994.994 0 0 1-.712.303h-2.259V37.574h-5.387c-.348 5.433-2.9 9.048-7.19 9.048-4.53 0-7.157-4.169-7.157-10.287 0-6.119 2.627-10.317 7.157-10.317m0 2.7c-2.312 0-3.99 2.98-3.99 7.664 0 4.585 1.657 7.613 3.99 7.613 2.408 0 4.086-3.028 4.086-7.613 0-4.654-1.678-7.664-4.086-7.664M287.067 38.196a1.031 1.031 0 0 1-.83 1.179c-3.036.558-7.603.766-11.405.766h-2.667a1.035 1.035 0 0 1-1.01-1.034v-6.685a1.04 1.04 0 0 1 1.045-1.035h8.683v-3.09h-8.816c-.28.005-.55-.1-.75-.293a1.03 1.03 0 0 1-.317-.734v-1.61h12.197a1.04 1.04 0 0 1 1.045 1.035v6.23a1.04 1.04 0 0 1-1.045 1.034h-8.679v3.483c3.582 0 9.6-.196 12.291-.911l.258 1.665zM284.005 53c-6.343 0-9.96-2.18-9.96-5.501s3.617-5.535 9.96-5.535c6.344 0 9.995 2.214 9.995 5.535S290.383 53 284.005 53zm-6.498-5.501c0 1.703 2.37 2.861 6.511 2.861 4.142 0 6.541-1.137 6.541-2.861 0-1.725-2.365-2.93-6.54-2.93-4.177 0-6.512 1.171-6.512 2.93zm12.902-5.893V24h2.305a1.04 1.04 0 0 1 1.045 1.035V40.57c.001.275-.108.539-.305.733a1.046 1.046 0 0 1-.74.302h-2.305z"/>
    </g>
</svg>
