<svg id="Layer_1" data-name="Layer 1" xmlns="http://www.w3.org/2000/svg" viewBox="0 0 160 54"><defs><style>.cls-1{fill:#f9d500;}.cls-2{fill:#2b2b2b;}</style></defs><rect class="cls-1" width="160" height="54" rx="6.05"/><path class="cls-2" d="M70.39,18.71c0,5.72-1.35,10.49-8.25,14l-1.41-2a12.3,12.3,0,0,0,5.88-5.27l-5.38.52-.34-2.25,6.48-.39a15,15,0,0,0,.38-2.45H61.88V18.71Zm7.53,7.49h-2.6v9.24H72.66V16.92h2.66V24h2.6Z"/><path class="cls-2" d="M96.07,26.77v2.11H79.3V26.77h7V25.44H81.4v-8H94.16v2H84v1h9.68v1.93H84v1.08H94.3v2H89v1.33ZM81.18,30H94V35.5H91.36V32.06H81.18Z"/><path class="cls-2" d="M107.38,27.21a6.85,6.85,0,0,1-4.09-3.46,7.1,7.1,0,0,1-4.34,4l-1.39-2.09a6,6,0,0,0,4.34-6V18h2.7v1.89a5.44,5.44,0,0,0,4.17,5.32Zm5.25,4.69c0,2.25-2.41,3.58-6.26,3.58s-6.28-1.33-6.28-3.58,2.42-3.56,6.28-3.56S112.63,29.66,112.63,31.9Zm-2.63,0c0-1-1.27-1.51-3.63-1.51s-3.64.48-3.64,1.51,1.27,1.53,3.64,1.53S110,32.94,110,31.9Zm4.89-10.65v2.19h-2.46v4.47h-2.66V17h2.66v4.29Z"/><path class="cls-2" d="M127.1,26.1a37.63,37.63,0,0,1-8.49.6h-1.55V18.07h8.25V20.2h-5.62v4.37a33.83,33.83,0,0,0,7.15-.56Zm-8.21,2h12v7.13h-12Zm2.61,5.06h6.85v-3H121.5Zm11.9-9.93h-2.46v4.07h-2.65V16.92h2.65v4.19h2.46Z"/><ellipse class="cls-2" cx="30" cy="25.54" rx="13.43" ry="10.54"/><polygon class="cls-2" points="22.77 33.8 21.53 40 28.35 35.66 22.77 33.8"/></svg>