<svg id="Layer_1" data-name="Layer 1" xmlns="http://www.w3.org/2000/svg" viewBox="0 0 160 54"><defs><style>.cls-1{fill:#35b74b;}.cls-2{fill:#fff;}</style></defs><rect class="cls-1" width="160" height="54" rx="6.05"/><path class="cls-2" d="M23.05,33.15c-6.57-6.58-10.44-13.37-5.53-18.28a10.75,10.75,0,0,1,1.28-1.06l7.56,7.57-3.69,3.68,8.47,8.46,3.68-3.68,7.57,7.56a10,10,0,0,1-1.07,1.28C36.42,43.58,29.62,39.72,23.05,33.15Z"/><path class="cls-2" d="M72.69,28.07a6.82,6.82,0,0,1-4.2-3.66,7.32,7.32,0,0,1-4.45,4l-1.33-2.12a6,6,0,0,0,4.37-5.75V20.3H63.43V18.19h10V20.3H69.79v.25A5.71,5.71,0,0,0,74,26Zm6,5v2.12H66.09V29.34h2.66V33ZM75.65,21.73V16.94h2.66V30.47H75.65V23.89h-2.9V21.73Z"/><path class="cls-2" d="M88.27,30.11c1.43-.08,2.86-.19,4.18-.39l.21,1.92a59.6,59.6,0,0,1-11.21.76l-.33-2.15c1.33,0,2.86,0,4.49,0V28.64c-1.93-.39-3.2-1.65-3.2-3.34,0-2.1,1.87-3.51,4.53-3.51s4.53,1.41,4.53,3.51c0,1.69-1.27,2.95-3.2,3.34Zm4.1-9H81.47V19h4.14V17h2.66v2h4.1Zm-5.43,5.72c1.21,0,2-.53,2-1.49s-.8-1.49-2-1.49-2,.52-2,1.49S85.73,26.79,86.94,26.79Zm11.43-.11H96.06v8.8H93.4V16.94h2.66v7.55h2.31Z"/><path class="cls-2" d="M109.38,27.21a6.85,6.85,0,0,1-4.09-3.46,7.1,7.1,0,0,1-4.34,4l-1.39-2.09a6,6,0,0,0,4.34-6V18h2.7v1.89a5.44,5.44,0,0,0,4.17,5.32Zm5.25,4.69c0,2.25-2.41,3.58-6.26,3.58s-6.28-1.33-6.28-3.58,2.42-3.56,6.28-3.56S114.63,29.66,114.63,31.9Zm-2.63,0c0-1-1.27-1.51-3.63-1.51s-3.64.48-3.64,1.51,1.27,1.53,3.64,1.53S112,32.94,112,31.9Zm4.89-10.65v2.19h-2.46v4.47h-2.66V17h2.66v4.29Z"/><path class="cls-2" d="M129.1,26.1a37.63,37.63,0,0,1-8.49.6h-1.55V18.07h8.25V20.2h-5.62v4.37a33.83,33.83,0,0,0,7.15-.56Zm-8.21,2h12v7.13h-12Zm2.61,5.06h6.85v-3H123.5Zm11.9-9.93h-2.46v4.07h-2.65V16.92h2.65v4.19h2.46Z"/></svg>