<svg id="Layer_1" data-name="Layer 1" xmlns="http://www.w3.org/2000/svg" viewBox="0 0 112.68 38.03"><defs><style>.cls-1{fill:#fce103;}.cls-2{fill:#2b2b2b;}</style></defs><rect class="cls-1" width="112.68" height="38.03" rx="19.01"/><path class="cls-2" d="M47.26,12.26c0,4.7-1.1,8.62-6.78,11.51l-1.15-1.68a10.1,10.1,0,0,0,4.82-4.34l-4.41.43-.28-1.85L44.78,16a12.07,12.07,0,0,0,.32-2H40.27V12.26Zm6.19,6.15H51.32V26H49.13V10.79h2.19v5.82h2.13Z"/><path class="cls-2" d="M68.05,18.88v1.73H54.27V18.88h5.79V17.79H56V11.17H66.47v1.65H58.16v.83h8v1.59h-8v.89h8.43v1.66H62.24v1.09ZM55.81,21.51H66.36v4.55H64.18V23.23H55.81Z"/><path class="cls-2" d="M77,19.24a5.56,5.56,0,0,1-3.36-2.84,5.86,5.86,0,0,1-3.57,3.27L69,18A5,5,0,0,0,72.52,13V11.63h2.21v1.56a4.46,4.46,0,0,0,3.43,4.36Zm4.31,3.85c0,1.86-2,2.95-5.14,2.95S71,25,71,23.09s2-2.92,5.16-2.92S81.33,21.26,81.33,23.09Zm-2.16,0c0-.84-1-1.24-3-1.24s-3,.4-3,1.24,1,1.26,3,1.26S79.17,24,79.17,23.09Zm4-8.75v1.81h-2v3.67H79v-9h2.18v3.52Z"/><path class="cls-2" d="M92.9,18.33a30.89,30.89,0,0,1-7,.5H84.65v-7.1h6.78v1.75H86.82v3.59a27.07,27.07,0,0,0,5.87-.46ZM86.15,20h9.91v5.86H86.15Zm2.15,4.15h5.63V21.72H88.3ZM98.08,16h-2v3.34H93.88V10.79h2.18v3.44h2Z"/><ellipse class="cls-2" cx="22.02" cy="17.79" rx="9.46" ry="7.42"/><polygon class="cls-2" points="16.93 23.61 16.05 27.97 20.86 24.92 16.93 23.61"/></svg>