<svg id="Layer_1" data-name="Layer 1" xmlns="http://www.w3.org/2000/svg" viewBox="0 0 63.3 43"><defs><style>.cls-1{fill:#383838;}</style></defs><path class="cls-1" d="M8.79,22.66a6.08,6.08,0,0,1-3.66-3.1,6.39,6.39,0,0,1-3.89,3.57L0,21.26a5.42,5.42,0,0,0,3.89-5.39V14.38H6.3v1.69A4.86,4.86,0,0,0,10,20.82Zm4.7,4.2c0,2-2.16,3.2-5.6,3.2s-5.62-1.19-5.62-3.2,2.16-3.19,5.62-3.19S13.49,24.86,13.49,26.86Zm-2.36,0c0-.92-1.14-1.35-3.24-1.35s-3.26.43-3.26,1.35,1.13,1.36,3.26,1.36S11.13,27.79,11.13,26.86Zm4.37-9.53v2H13.31v4H10.93V13.5h2.38v3.83Z"/><path class="cls-1" d="M25.71,21.67a33.55,33.55,0,0,1-7.6.54H16.72V14.49H24.1v1.9h-5V20.3a30.09,30.09,0,0,0,6.39-.5Zm-7.35,1.82H29.15v6.37H18.36ZM20.7,28h6.12V25.36H20.7Zm10.64-8.88H29.15v3.64H26.77V13.46h2.38V17.2h2.19Z"/><path class="cls-1" d="M40.61,13.75h2.22V29.3H40.61V24.17H38.72c-.61,1.61-1.67,2.52-3,2.52-2.22,0-3.6-2.26-3.6-6s1.38-6,3.6-6c1.35,0,2.41.88,3,2.48h1.91Zm-3.47,6.91c0-2.54-.54-3.78-1.46-3.78s-1.48,1.24-1.48,3.78.54,3.8,1.48,3.8S37.14,23.2,37.14,20.66Zm3.47,1.59V19H39.15a11.9,11.9,0,0,1,.11,1.62,15.69,15.69,0,0,1-.09,1.59Zm5.55-8.79V30H43.91V13.46Z"/><path class="cls-1" d="M52.4,22.5c-2.56,0-4.5-1.69-4.5-4.05a4.19,4.19,0,0,1,4.5-4.07,4.18,4.18,0,0,1,4.48,4.07C56.88,20.81,54.94,22.5,52.4,22.5Zm-2.63,1.42H60.83v6.16H58.45V25.83H49.77ZM52.4,20.5a2.06,2.06,0,1,0-2.18-2.05A2,2,0,0,0,52.4,20.5Zm8.43-2.93v1.65H63v2H60.83v2.08H58.45V13.48h2.38v2.16H63v1.93Z"/></svg>