<svg id="Layer_1" data-name="Layer 1" xmlns="http://www.w3.org/2000/svg" viewBox="0 0 78.75 43"><defs><style>.cls-1{fill:#383838;}</style></defs><path class="cls-1" d="M16.19,24.15H9.82v5.42H7.44V24.15H1.17V22.26h15Zm-1.8-3.65H2.9V13.8H14.39Zm-2.32-4.83H5.24v3h6.83Z"/><path class="cls-1" d="M32,25.81v1.94H17V25.81h3.82V23.29H18.74V17.71H28V15.94H18.72V14.05H30.34v5.51H21.1v1.82h9.61v1.91H28.39v2.52Zm-8.88,0h2.9V23.29h-2.9Z"/><path class="cls-1" d="M41.39,22.17a6.07,6.07,0,0,1-3.66-3.09,6.41,6.41,0,0,1-3.89,3.56L32.6,20.77a5.42,5.42,0,0,0,3.89-5.39V13.89H38.9v1.69a4.87,4.87,0,0,0,3.73,4.76Zm4.7,4.2c0,2-2.16,3.2-5.6,3.2s-5.62-1.19-5.62-3.2,2.16-3.19,5.62-3.19S46.09,24.37,46.09,26.37Zm-2.36,0c0-.92-1.14-1.35-3.24-1.35s-3.26.43-3.26,1.35,1.13,1.37,3.26,1.37S43.73,27.3,43.73,26.37Zm4.37-9.53v2H45.91v4H43.53V13h2.38v3.83Z"/><path class="cls-1" d="M58.31,21.18a33.55,33.55,0,0,1-7.6.54H49.32V14H56.7v1.91h-5v3.9a29.44,29.44,0,0,0,6.39-.5ZM51,23H61.75v6.37H51Zm2.34,4.52h6.12V24.87H53.3Zm10.64-8.88H61.75v3.64H59.37V13h2.38v3.75h2.19Z"/></svg>