<svg id="Layer_1" data-name="Layer 1" xmlns="http://www.w3.org/2000/svg" viewBox="0 0 163.91 43"><defs><style>.cls-1{fill:#383838;}</style></defs><path class="cls-1" d="M30.58,28.42h4.28V15.81H31.25V13.35a12.84,12.84,0,0,0,4.64-1.67h2.94V28.42h3.74v3.21h-12Z"/><path class="cls-1" d="M44.94,29.29l1.84-2.54a6.18,6.18,0,0,0,4.39,2,3.35,3.35,0,0,0,3.53-3.67c0-2.32-1.34-3.61-3.37-3.61a4.75,4.75,0,0,0-3,1.05l-1.8-1.19.53-9.68H57.75V15H50.5l-.38,4.23a5.12,5.12,0,0,1,2.4-.57c3.34,0,6.15,2,6.15,6.34a6.74,6.74,0,0,1-7,7A9.12,9.12,0,0,1,44.94,29.29Z"/><path class="cls-1" d="M61.28,29.34c5.42-4.85,8.63-8.6,8.63-11.67,0-2-1.11-3.24-3-3.24a5.16,5.16,0,0,0-3.67,2.05l-2.16-2.16c1.84-1.94,3.61-3,6.34-3,3.77,0,6.28,2.43,6.28,6.15s-3,7.5-6.63,11.06c1-.11,2.32-.22,3.23-.22h4.34v3.34H61.28Z"/><path class="cls-1" d="M77.16,29.34c5.42-4.85,8.63-8.6,8.63-11.67,0-2-1.11-3.24-3-3.24a5.14,5.14,0,0,0-3.66,2.05L77,14.32a8.09,8.09,0,0,1,6.34-3c3.77,0,6.28,2.43,6.28,6.15S86.6,25,83,28.51c1-.11,2.31-.22,3.23-.22h4.34v3.34H77.16Z"/><path class="cls-1" d="M93.2,22.49h7.36v2.83H93.2Z"/><path class="cls-1" d="M114.23,15.94a4.34,4.34,0,0,0-3.08-1.46c-2.29,0-4.17,1.73-4.34,6.72a5.82,5.82,0,0,1,4.1-2.13c3.35,0,5.72,2,5.72,6.28,0,4.1-2.86,6.66-6.26,6.66-3.8,0-7.17-3-7.17-10.08,0-7.45,3.69-10.63,7.71-10.63a7.38,7.38,0,0,1,5.42,2.27ZM113,25.35c0-2.37-1.11-3.48-2.83-3.48A4,4,0,0,0,106.89,24c.38,3.64,1.73,5,3.4,5C111.77,29,113,27.78,113,25.35Z"/><path class="cls-1" d="M118.43,29.29l1.84-2.54a6.18,6.18,0,0,0,4.39,2,3.35,3.35,0,0,0,3.53-3.67c0-2.32-1.35-3.61-3.37-3.61a4.75,4.75,0,0,0-3,1.05L120,21.36l.54-9.68h10.68V15H124l-.38,4.23a5.12,5.12,0,0,1,2.4-.57c3.34,0,6.15,2,6.15,6.34a6.74,6.74,0,0,1-7,7A9.1,9.1,0,0,1,118.43,29.29Z"/><path class="cls-1" d="M134.88,26.67a5.8,5.8,0,0,1,3.42-5.2v-.14a5.66,5.66,0,0,1-2.64-4.74c0-3.21,2.53-5.26,6-5.26s5.8,2.13,5.8,5.31a5.81,5.81,0,0,1-2.56,4.56v.13a5.81,5.81,0,0,1,3.34,5.34c0,3-2.67,5.34-6.71,5.34C137.73,32,134.88,29.8,134.88,26.67Zm9.68-.13c0-2.08-1.84-2.94-4.43-4a4.81,4.81,0,0,0-1.83,3.69,3.06,3.06,0,0,0,3.34,3A2.62,2.62,0,0,0,144.56,26.54Zm-.33-9.66a2.54,2.54,0,0,0-2.64-2.77,2.32,2.32,0,0,0-2.43,2.48c0,1.89,1.54,2.8,3.64,3.64A4.8,4.8,0,0,0,144.23,16.88Z"/><path class="cls-1" d="M150.19,29.29,152,26.75a6.2,6.2,0,0,0,4.4,2A3.36,3.36,0,0,0,160,25.11c0-2.32-1.35-3.61-3.37-3.61a4.73,4.73,0,0,0-3,1.05l-1.81-1.19.54-9.68H163V15h-7.26l-.37,4.23a5.11,5.11,0,0,1,2.39-.57c3.35,0,6.15,2,6.15,6.34a6.74,6.74,0,0,1-7,7A9.09,9.09,0,0,1,150.19,29.29Z"/><path class="cls-1" d="M6.16,26.62C.93,21.4-2.14,16,1.76,12.1a8,8,0,0,1,1-.85l6,6L5.86,20.19l6.72,6.73L15.51,24l6,6a7.38,7.38,0,0,1-.84,1C16.78,34.91,11.38,31.84,6.16,26.62Z"/></svg>